<svg xmlns="http://www.w3.org/2000/svg" xmlns:xlink="http://www.w3.org/1999/xlink" version="1.1" x="0px" y="0px" viewBox="0 0 96 96" enable-background="new 0 0 96 96" xml:space="preserve"><g><path d="M89.414,86.586l-23-22.998c5.455-6.117,8.777-14.172,8.777-22.994C75.191,21.518,59.67,6,40.594,6   C21.519,6,6,21.519,6,40.594C6,59.67,21.519,75.189,40.594,75.189c8.82,0,16.875-3.322,22.992-8.773l22.998,22.998   C86.975,89.805,87.486,90,87.998,90s1.023-0.195,1.414-0.586C90.195,88.633,90.195,87.365,89.414,86.586z M10.001,40.594   C10.001,23.724,23.726,10,40.595,10c16.87,0,30.596,13.725,30.596,30.595c0,16.871-13.727,30.595-30.596,30.595   C23.726,71.189,10.001,57.465,10.001,40.594z"/><path d="M54.596,37.833h-12v-12c0-1.104-0.896-2-2-2s-2,0.896-2,2v12h-12c-1.104,0-2,0.896-2,2c0,1.104,0.896,2,2,2h12v12   c0,1.104,0.896,2,2,2s2-0.896,2-2v-12h12c1.104,0,2-0.896,2-2C56.596,38.729,55.699,37.833,54.596,37.833z"/></g></svg>
